<svg width="137" height="29" viewBox="0 0 137 29" fill="none" xmlns="http://www.w3.org/2000/svg">
<path d="M11.4716 9.36364V21H9.01136V9.36364H11.4716ZM17.6207 21H13.4957V9.36364H17.6548C18.8253 9.36364 19.8329 9.59659 20.6776 10.0625C21.5223 10.5246 22.1719 11.1894 22.6264 12.0568C23.0848 12.9242 23.3139 13.9621 23.3139 15.1705C23.3139 16.3826 23.0848 17.4242 22.6264 18.2955C22.1719 19.1667 21.5185 19.8352 20.6662 20.3011C19.8177 20.767 18.8026 21 17.6207 21ZM15.956 18.892H17.5185C18.2457 18.892 18.8575 18.7633 19.3537 18.5057C19.8537 18.2443 20.2287 17.8409 20.4787 17.2955C20.7325 16.7462 20.8594 16.0379 20.8594 15.1705C20.8594 14.3106 20.7325 13.608 20.4787 13.0625C20.2287 12.517 19.8556 12.1155 19.3594 11.858C18.8632 11.6004 18.2514 11.4716 17.5241 11.4716H15.956V18.892ZM25.1364 21V9.36364H32.9773V11.392H27.5966V14.1648H32.5739V16.1932H27.5966V18.9716H33V21H25.1364ZM36.9389 21H34.3026L38.3196 9.36364H41.4901L45.5014 21H42.8651L39.9503 12.0227H39.8594L36.9389 21ZM36.7741 16.4261H43.0014V18.3466H36.7741V16.4261Z" fill="#2B1F5D"/>
<path d="M64.1548 10.6378C64.098 10.0649 63.8542 9.61979 63.4233 9.30256C62.9924 8.98532 62.4077 8.8267 61.669 8.8267C61.1671 8.8267 60.7434 8.89773 60.3977 9.03977C60.0521 9.17708 59.7869 9.36884 59.6023 9.61506C59.4223 9.86127 59.3324 10.1406 59.3324 10.4531C59.3229 10.7135 59.3774 10.9408 59.4957 11.1349C59.6188 11.3291 59.7869 11.4972 60 11.6392C60.2131 11.7765 60.4593 11.8973 60.7386 12.0014C61.018 12.1009 61.3163 12.1861 61.6335 12.2571L62.9403 12.5696C63.5748 12.7116 64.1572 12.901 64.6875 13.1378C65.2178 13.3745 65.6771 13.6657 66.0653 14.0114C66.4536 14.357 66.7543 14.7642 66.9673 15.233C67.1851 15.7017 67.2964 16.2391 67.3011 16.8452C67.2964 17.7353 67.0691 18.5071 66.6193 19.1605C66.1742 19.8092 65.5303 20.3134 64.6875 20.6733C63.8494 21.0284 62.8385 21.206 61.6548 21.206C60.4806 21.206 59.4579 21.026 58.5866 20.6662C57.7202 20.3063 57.0431 19.7737 56.5554 19.0682C56.0724 18.358 55.8191 17.4796 55.7955 16.4332H58.7713C58.8045 16.9209 58.9441 17.3281 59.1903 17.6548C59.4413 17.9768 59.7751 18.2206 60.1918 18.3864C60.6132 18.5473 61.089 18.6278 61.6193 18.6278C62.1402 18.6278 62.5923 18.5521 62.9759 18.4006C63.3641 18.2491 63.6648 18.0384 63.8778 17.7685C64.0909 17.4986 64.1974 17.1884 64.1974 16.8381C64.1974 16.5114 64.1004 16.2367 63.9062 16.0142C63.7169 15.7917 63.4375 15.6023 63.0682 15.446C62.7036 15.2898 62.2562 15.1477 61.7259 15.0199L60.142 14.6222C58.9157 14.3239 57.9474 13.8575 57.2372 13.223C56.527 12.5885 56.1742 11.7339 56.179 10.6591C56.1742 9.77841 56.4086 9.009 56.8821 8.35085C57.3603 7.69271 58.0161 7.17898 58.8494 6.80966C59.6828 6.44034 60.6297 6.25568 61.6903 6.25568C62.7699 6.25568 63.7121 6.44034 64.517 6.80966C65.3267 7.17898 65.9564 7.69271 66.4062 8.35085C66.8561 9.009 67.0881 9.77131 67.1023 10.6378H64.1548ZM69.3129 25.0909V10.0909H72.2958V11.9233H72.4308C72.5633 11.6297 72.7551 11.3314 73.006 11.0284C73.2617 10.7206 73.5932 10.465 74.0004 10.2614C74.4123 10.053 74.9237 9.94886 75.5344 9.94886C76.3299 9.94886 77.0638 10.1572 77.7362 10.5739C78.4085 10.9858 78.9459 11.6084 79.3484 12.4418C79.7508 13.2704 79.9521 14.3097 79.9521 15.5597C79.9521 16.7765 79.7556 17.804 79.3626 18.642C78.9743 19.4754 78.444 20.1075 77.7717 20.5384C77.104 20.9645 76.3559 21.1776 75.5273 21.1776C74.9402 21.1776 74.4407 21.0805 74.0288 20.8864C73.6216 20.6922 73.2878 20.4484 73.0273 20.1548C72.7669 19.8565 72.5681 19.5559 72.4308 19.2528H72.3384V25.0909H69.3129ZM72.2745 15.5455C72.2745 16.1941 72.3645 16.7599 72.5444 17.2429C72.7243 17.7259 72.9847 18.1023 73.3256 18.3722C73.6665 18.6373 74.0808 18.7699 74.5685 18.7699C75.061 18.7699 75.4776 18.6349 75.8185 18.3651C76.1594 18.0904 76.4175 17.7116 76.5927 17.2287C76.7726 16.741 76.8626 16.1799 76.8626 15.5455C76.8626 14.9157 76.775 14.3617 76.5998 13.8835C76.4246 13.4053 76.1665 13.0312 75.8256 12.7614C75.4847 12.4915 75.0657 12.3565 74.5685 12.3565C74.0761 12.3565 73.6594 12.4867 73.3185 12.7472C72.9824 13.0076 72.7243 13.3769 72.5444 13.8551C72.3645 14.3333 72.2745 14.8968 72.2745 15.5455ZM85.0799 21.206C84.3839 21.206 83.7636 21.0852 83.2191 20.8438C82.6746 20.5975 82.2437 20.2353 81.9265 19.7571C81.614 19.2741 81.4577 18.6728 81.4577 17.9531C81.4577 17.3471 81.569 16.8381 81.7915 16.4261C82.0141 16.0142 82.3171 15.6828 82.7006 15.4318C83.0842 15.1809 83.5198 14.9915 84.0075 14.8636C84.4999 14.7358 85.016 14.6458 85.5558 14.5938C86.1902 14.5275 86.7016 14.4659 87.0898 14.4091C87.4781 14.3475 87.7598 14.2576 87.935 14.1392C88.1102 14.0208 88.1978 13.8456 88.1978 13.6136V13.571C88.1978 13.1212 88.0558 12.7732 87.7717 12.527C87.4923 12.2808 87.0946 12.1577 86.5785 12.1577C86.034 12.1577 85.6007 12.2784 85.2788 12.5199C84.9568 12.7566 84.7437 13.0549 84.6396 13.4148L81.8413 13.1875C81.9833 12.5246 82.2627 11.9517 82.6793 11.4688C83.096 10.9811 83.6334 10.607 84.2915 10.3466C84.9544 10.0814 85.7215 9.94886 86.5927 9.94886C87.1987 9.94886 87.7788 10.0199 88.3327 10.1619C88.8915 10.304 89.3862 10.5241 89.8171 10.8224C90.2527 11.1207 90.596 11.5043 90.8469 11.973C91.0979 12.437 91.2234 12.9934 91.2234 13.642V21H88.354V19.4872H88.2688C88.0936 19.8281 87.8593 20.1288 87.5657 20.3892C87.2721 20.6449 86.9194 20.8461 86.5075 20.9929C86.0955 21.1349 85.6197 21.206 85.0799 21.206ZM85.9464 19.1179C86.3915 19.1179 86.7844 19.0303 87.1254 18.8551C87.4663 18.6752 87.7338 18.4337 87.9279 18.1307C88.122 17.8277 88.2191 17.4844 88.2191 17.1009V15.9432C88.1244 16.0047 87.9942 16.0616 87.8285 16.1136C87.6675 16.161 87.4852 16.206 87.2816 16.2486C87.078 16.2865 86.8744 16.322 86.6708 16.3551C86.4672 16.3835 86.2826 16.4096 86.1168 16.4332C85.7617 16.4853 85.4516 16.5682 85.1864 16.6818C84.9213 16.7955 84.7153 16.9493 84.5685 17.1435C84.4218 17.3329 84.3484 17.5696 84.3484 17.8537C84.3484 18.2656 84.4975 18.5805 84.7958 18.7983C85.0988 19.0114 85.4824 19.1179 85.9464 19.1179ZM93.5707 21V10.0909H96.5039V11.9943H96.6175C96.8164 11.3172 97.1502 10.8059 97.619 10.4602C98.0877 10.1098 98.6275 9.93466 99.2383 9.93466C99.3898 9.93466 99.5531 9.94413 99.7283 9.96307C99.9035 9.98201 100.057 10.008 100.19 10.0412V12.7259C100.048 12.6832 99.8514 12.6454 99.6005 12.6122C99.3496 12.5791 99.1199 12.5625 98.9116 12.5625C98.4665 12.5625 98.0688 12.6596 97.7184 12.8537C97.3728 13.0431 97.0981 13.3082 96.8945 13.6491C96.6957 13.9901 96.5962 14.383 96.5962 14.8281V21H93.5707ZM104.496 17.8608L104.503 14.2315H104.943L108.438 10.0909H111.911L107.216 15.5739H106.499L104.496 17.8608ZM101.754 21V6.45455H104.78V21H101.754ZM108.572 21L105.362 16.2486L107.379 14.1108L112.116 21H108.572Z" fill="#2B1F5D"/>
<rect x="1.5" y="1.5" width="51" height="25" stroke="#2B1F5D" stroke-width="3"/>
<rect x="56" y="25" width="11" height="2" fill="white" stroke="#2B1F5D" stroke-width="2"/>
</svg>
